<?xml version="1.0" encoding="UTF-8" standalone="no"?>
<!-- Created with Inkscape (http://www.inkscape.org/) -->

<svg
   xmlns:dc="http://purl.org/dc/elements/1.1/"
   xmlns:cc="http://creativecommons.org/ns#"
   xmlns:rdf="http://www.w3.org/1999/02/22-rdf-syntax-ns#"
   xmlns:svg="http://www.w3.org/2000/svg"
   xmlns="http://www.w3.org/2000/svg"
   xmlns:sodipodi="http://sodipodi.sourceforge.net/DTD/sodipodi-0.dtd"
   xmlns:inkscape="http://www.inkscape.org/namespaces/inkscape"
   width="384"
   height="128"
   id="svg2"
   version="1.1"
   inkscape:version="0.91 r13725"
   sodipodi:docname="birds1.svg">
  <defs
     id="defs4" />
  <sodipodi:namedview
     id="base"
     pagecolor="#ffffff"
     bordercolor="#666666"
     borderopacity="1.0"
     inkscape:pageopacity="0.0"
     inkscape:pageshadow="2"
     inkscape:zoom="4.0182292"
     inkscape:cx="127.76947"
     inkscape:cy="64"
     inkscape:document-units="px"
     inkscape:current-layer="layer1"
     showgrid="false"
     inkscape:window-width="1920"
     inkscape:window-height="1018"
     inkscape:window-x="1016"
     inkscape:window-y="-8"
     inkscape:window-maximized="1"
     fit-margin-top="0"
     fit-margin-left="0"
     fit-margin-right="0"
     fit-margin-bottom="0">
    <inkscape:grid
       type="xygrid"
       id="grid3793"
       empspacing="5"
       visible="true"
       enabled="true"
       snapvisiblegridlinesonly="true" />
  </sodipodi:namedview>
  <metadata
     id="metadata7">
    <rdf:RDF>
      <cc:Work
         rdf:about="">
        <dc:format>image/svg+xml</dc:format>
        <dc:type
           rdf:resource="http://purl.org/dc/dcmitype/StillImage" />
        <dc:title></dc:title>
      </cc:Work>
    </rdf:RDF>
  </metadata>
  <g
     inkscape:label="Layer 1"
     inkscape:groupmode="layer"
     id="layer1"
     transform="translate(-1.373463,-922.99349)">
    <ellipse
       style="fill:#b3b3b3;fill-opacity:1;stroke:#000000;stroke-width:1.50000012;stroke-linejoin:round;stroke-miterlimit:4;stroke-dasharray:none"
       id="path2993"
       transform="matrix(-0.99102947,0.13364354,0.1330052,0.99111534,0,0)"
       cx="-11.492146"
       cy="996.86816"
       rx="11.218227"
       ry="1.9441645" />
    <path
       style="fill:#ffffff;fill-opacity:1;stroke:#000000;stroke-width:1.5;stroke-linecap:round;stroke-linejoin:round;stroke-miterlimit:4;stroke-dasharray:none"
       d="m 166.2308,976.48267 c 11.97866,0.80076 27.1022,4.58837 36.45242,6.06922 4.64081,0.73499 14.43934,2.48479 24.51128,2.42768 13.92007,-0.079 24.9775,-3.63061 25.42862,-1.5449 0.45112,2.08574 -10.20991,6.16534 -23.8141,9.12222 -0.62537,0.13592 -1.2195,0.24147 -1.83468,0.36784 -5.42448,5.10039 -18.79378,13.83037 -33.83144,13.83037 -16.01121,0 -26.2981,-4.6688 -30.72822,-10.38324 -7.33174,-1.06971 -19.72468,-3.07534 -19.12259,-11.86523 0.73013,-10.65916 14.53829,-12.06375 22.93871,-8.02396 z"
       id="path2985"
       inkscape:connector-curvature="0"
       sodipodi:nodetypes="csssscscsc" />
    <path
       style="fill:#ffffff;fill-opacity:1;stroke:#000000;stroke-width:1.5;stroke-linecap:round;stroke-linejoin:round;stroke-miterlimit:4;stroke-dasharray:none"
       d="m 209.33961,987.9821 c 0.1533,3.04749 -10.44959,9.04392 -9.83944,13.1777 0.56364,3.8187 12.70423,13.8347 8.22033,15.302 -2.95163,0.966 -17.04841,-3.8032 -26.16274,-7.6326 -9.40978,-3.9534 -13.68682,-4.3856 -13.9906,-6.6515 -0.55444,-4.1352 0.67802,-10.94234 3.9365,-13.6567"
       id="path2995"
       inkscape:connector-curvature="0"
       sodipodi:nodetypes="cssssc" />
    <ellipse
       style="fill:#ffffff;fill-opacity:1;stroke:#000000;stroke-width:1.5;stroke-linecap:square;stroke-linejoin:round;stroke-miterlimit:4;stroke-dasharray:none;stroke-opacity:1"
       id="path3791"
       transform="scale(-1,1)"
       cx="-151.94106"
       cy="981.06842"
       rx="2.4508028"
       ry="2.4507196" />
    <ellipse
       style="fill:#b3b3b3;fill-opacity:1;stroke:#000000;stroke-width:1.50000012;stroke-linejoin:round;stroke-miterlimit:4;stroke-dasharray:none"
       id="path2993-2"
       transform="matrix(-0.99102947,0.13364354,0.1330052,0.99111534,0,0)"
       cx="115.15613"
       cy="980.04297"
       rx="11.218227"
       ry="1.9441645" />
    <path
       style="fill:#ffffff;fill-opacity:1;stroke:#000000;stroke-width:1.5;stroke-linecap:round;stroke-linejoin:round;stroke-miterlimit:4;stroke-dasharray:none"
       d="m 38.480801,976.73267 c 11.97866,0.80077 27.1022,4.58837 36.45241,6.06923 4.64082,0.73498 14.43935,2.48479 24.51129,2.42768 13.920069,-0.079 24.977489,-3.63062 25.428619,-1.5449 0.45112,2.08573 -10.20991,6.16534 -23.81411,9.12221 -0.62536,0.13592 -1.219489,0.24147 -1.834669,0.36784 -5.42448,5.10039 -18.79379,13.83037 -33.83145,13.83037 -16.0112,0 -26.2981,-4.6688 -30.72821,-10.38323 -7.33174,-1.06971 -19.72468,-3.07535 -19.12259,-11.86523 0.73013,-10.65916 14.53829,-12.06376 22.93871,-8.02397 z"
       id="path2985-5"
       inkscape:connector-curvature="0"
       sodipodi:nodetypes="csssscscsc" />
    <path
       style="fill:#ffffff;fill-opacity:1;stroke:#000000;stroke-width:1.5;stroke-linecap:round;stroke-linejoin:round;stroke-miterlimit:4;stroke-dasharray:none"
       d="m 81.589611,988.2321 c 0.15329,3.04749 -10.44959,9.04392 -9.83945,13.1777 0.56365,3.8187 12.70424,13.8348 8.22033,15.3021 -2.95162,0.9659 -17.0484,-3.8032 -26.16273,-7.6327 -9.40978,-3.9534 -13.68683,-4.3856 -13.9906,-6.6515 -0.55444,-4.13519 0.67801,-10.94234 3.9365,-13.6567"
       id="path2995-8"
       inkscape:connector-curvature="0"
       sodipodi:nodetypes="cssssc" />
    <path
       style="fill:none;stroke:#000000;stroke-width:1.5;stroke-linecap:round;stroke-linejoin:round;stroke-miterlimit:4;stroke-dasharray:none;stroke-opacity:1"
       d="m 24.186651,982.07318 3.54737,-1.02076 0.23833,4.20786 -3.79624,0.35491 -3.24025,-2.02788 1.33422,-4.7529 5.01921,-0.38024"
       id="path3795"
       inkscape:connector-curvature="0"
       sodipodi:nodetypes="ccccccc" />
    <ellipse
       transform="matrix(-0.99102947,0.13364354,0.1330052,0.99111534,0,0)"
       id="path2997"
       style="fill:#b3b3b3;fill-opacity:1;stroke:#000000;stroke-width:1.50000012;stroke-linejoin:round;stroke-miterlimit:4;stroke-dasharray:none"
       cx="-138.35493"
       cy="1013.9745"
       rx="11.218227"
       ry="1.9441645" />
    <path
       sodipodi:nodetypes="csssscscsc"
       inkscape:connector-curvature="0"
       id="path2999"
       d="m 294.2308,976.48267 c 11.97866,0.80076 27.1022,4.58837 36.45242,6.06922 4.64081,0.73499 14.43934,2.48479 24.51128,2.42768 13.92007,-0.079 24.9775,-3.63061 25.42862,-1.5449 0.45112,2.08574 -10.20991,6.16534 -23.8141,9.12222 -0.62537,0.13592 -1.2195,0.24147 -1.83468,0.36784 -5.42448,5.10039 -18.79378,13.83037 -33.83144,13.83037 -16.01121,0 -26.2981,-4.6688 -30.72822,-10.38324 -7.33174,-1.06971 -19.72468,-3.07534 -19.12259,-11.86523 0.73013,-10.65916 14.53829,-12.06375 22.93871,-8.02396 z"
       style="fill:#ffffff;fill-opacity:1;stroke:#000000;stroke-width:1.5;stroke-linecap:round;stroke-linejoin:round;stroke-miterlimit:4;stroke-dasharray:none" />
    <path
       sodipodi:nodetypes="cssssc"
       inkscape:connector-curvature="0"
       id="path3001"
       d="m 337.33961,987.9821 c 0.1533,-5.70089 -10.44959,-16.91832 -9.83944,-24.65132 0.56364,-7.14358 12.70423,-25.88036 8.22033,-28.62521 -2.95163,-1.80708 -17.04841,7.11459 -26.16274,14.27818 -9.40978,7.39557 -13.68682,8.20408 -13.9906,12.44286 -0.55444,7.73565 0.67802,20.46966 3.9365,25.54738"
       style="fill:#ffffff;fill-opacity:1;stroke:#000000;stroke-width:1.49999988;stroke-linecap:round;stroke-linejoin:round;stroke-miterlimit:4;stroke-dasharray:none" />
    <ellipse
       transform="scale(-1,1)"
       id="path3003"
       style="fill:#ffffff;fill-opacity:1;stroke:#000000;stroke-width:1.5;stroke-linecap:square;stroke-linejoin:round;stroke-miterlimit:4;stroke-dasharray:none;stroke-opacity:1"
       cx="-279.94107"
       cy="981.06842"
       rx="2.4508028"
       ry="2.4507196" />
  </g>
</svg>
